<svg width="1359" height="1087" viewBox="0 0 1359 1087" fill="none" xmlns="http://www.w3.org/2000/svg">
<g clip-path="url(#clip0)">
<path opacity="0.1" d="M390.403 186.425H288.46C282.58 186.425 277.813 191.195 277.813 197.08V213.055C277.813 218.939 282.58 223.71 288.46 223.71H390.403C396.283 223.71 401.05 218.939 401.05 213.055V197.08C401.05 191.195 396.283 186.425 390.403 186.425Z" fill="#6C63FF"/>
<path opacity="0.1" d="M519.371 223.71H417.428C411.548 223.71 406.781 228.48 406.781 234.365V250.34C406.781 256.224 411.548 260.995 417.428 260.995H519.371C525.251 260.995 530.018 256.224 530.018 250.34V234.365C530.018 228.48 525.251 223.71 519.371 223.71Z" fill="#6C63FF"/>
<path opacity="0.1" d="M648.34 260.995H546.397C540.517 260.995 535.75 265.765 535.75 271.65V287.625C535.75 293.509 540.517 298.28 546.397 298.28H648.34C654.22 298.28 658.987 293.509 658.987 287.625V271.65C658.987 265.765 654.22 260.995 648.34 260.995Z" fill="#6C63FF"/>
<path opacity="0.1" d="M390.403 130.497H288.46C282.58 130.497 277.813 135.268 277.813 141.152V157.127C277.813 163.012 282.58 167.782 288.46 167.782H390.403C396.283 167.782 401.05 163.012 401.05 157.127V141.152C401.05 135.268 396.283 130.497 390.403 130.497Z" fill="#6C63FF"/>
<path opacity="0.1" d="M519.371 167.782H417.428C411.548 167.782 406.781 172.553 406.781 178.437V194.412C406.781 200.297 411.548 205.067 417.428 205.067H519.371C525.251 205.067 530.018 200.297 530.018 194.412V178.437C530.018 172.553 525.251 167.782 519.371 167.782Z" fill="#6C63FF"/>
<path opacity="0.1" d="M648.34 205.067H546.397C540.517 205.067 535.75 209.838 535.75 215.722V231.697C535.75 237.582 540.517 242.352 546.397 242.352H648.34C654.22 242.352 658.987 237.582 658.987 231.697V215.722C658.987 209.838 654.22 205.067 648.34 205.067Z" fill="#6C63FF"/>
<path opacity="0.1" d="M791.639 186.425H689.696C683.816 186.425 679.049 191.195 679.049 197.08V213.055C679.049 218.939 683.816 223.71 689.696 223.71H791.639C797.519 223.71 802.286 218.939 802.286 213.055V197.08C802.286 191.195 797.519 186.425 791.639 186.425Z" fill="#6C63FF"/>
<path opacity="0.1" d="M920.607 223.71H818.665C812.784 223.71 808.018 228.48 808.018 234.365V250.34C808.018 256.224 812.784 260.995 818.665 260.995H920.607C926.487 260.995 931.254 256.224 931.254 250.34V234.365C931.254 228.48 926.487 223.71 920.607 223.71Z" fill="#6C63FF"/>
<path opacity="0.1" d="M1049.58 260.995H947.633C941.753 260.995 936.986 265.765 936.986 271.65V287.625C936.986 293.509 941.753 298.28 947.633 298.28H1049.58C1055.46 298.28 1060.22 293.509 1060.22 287.625V271.65C1060.22 265.765 1055.46 260.995 1049.58 260.995Z" fill="#6C63FF"/>
<path opacity="0.1" d="M791.639 130.497H689.696C683.816 130.497 679.049 135.268 679.049 141.152V157.127C679.049 163.012 683.816 167.782 689.696 167.782H791.639C797.519 167.782 802.286 163.012 802.286 157.127V141.152C802.286 135.268 797.519 130.497 791.639 130.497Z" fill="#6C63FF"/>
<path opacity="0.1" d="M920.607 167.782H818.665C812.784 167.782 808.018 172.553 808.018 178.437V194.412C808.018 200.297 812.784 205.067 818.665 205.067H920.607C926.487 205.067 931.254 200.297 931.254 194.412V178.437C931.254 172.553 926.487 167.782 920.607 167.782Z" fill="#6C63FF"/>
<path opacity="0.1" d="M1049.58 205.067H947.633C941.753 205.067 936.986 209.838 936.986 215.722V231.697C936.986 237.582 941.753 242.352 947.633 242.352H1049.58C1055.46 242.352 1060.22 237.582 1060.22 231.697V215.722C1060.22 209.838 1055.46 205.067 1049.58 205.067Z" fill="#6C63FF"/>
<path opacity="0.1" d="M648.34 130.497H546.397C540.517 130.497 535.75 135.268 535.75 141.152V157.127C535.75 163.012 540.517 167.782 546.397 167.782H648.34C654.22 167.782 658.987 163.012 658.987 157.127V141.152C658.987 135.268 654.22 130.497 648.34 130.497Z" fill="#6C63FF"/>
<path opacity="0.1" d="M1049.58 130.497H947.633C941.753 130.497 936.986 135.268 936.986 141.152V157.127C936.986 163.012 941.753 167.782 947.633 167.782H1049.58C1055.46 167.782 1060.22 163.012 1060.22 157.127V141.152C1060.22 135.268 1055.46 130.497 1049.58 130.497Z" fill="#6C63FF"/>
<path opacity="0.1" d="M390.403 794.456H288.46C282.58 794.456 277.813 799.227 277.813 805.111V821.087C277.813 826.971 282.58 831.741 288.46 831.741H390.403C396.283 831.741 401.05 826.971 401.05 821.087V805.111C401.05 799.227 396.283 794.456 390.403 794.456Z" fill="#6C63FF"/>
<path opacity="0.1" d="M519.371 831.741H417.428C411.548 831.741 406.781 836.512 406.781 842.396V858.371C406.781 864.256 411.548 869.026 417.428 869.026H519.371C525.251 869.026 530.018 864.256 530.018 858.371V842.396C530.018 836.512 525.251 831.741 519.371 831.741Z" fill="#6C63FF"/>
<path opacity="0.1" d="M791.639 794.456H689.696C683.816 794.456 679.049 799.227 679.049 805.111V821.087C679.049 826.971 683.816 831.741 689.696 831.741H791.639C797.519 831.741 802.286 826.971 802.286 821.087V805.111C802.286 799.227 797.519 794.456 791.639 794.456Z" fill="#6C63FF"/>
<path opacity="0.1" d="M920.607 831.741H818.665C812.784 831.741 808.018 836.512 808.018 842.396V858.371C808.018 864.256 812.784 869.026 818.665 869.026H920.607C926.487 869.026 931.254 864.256 931.254 858.371V842.396C931.254 836.512 926.487 831.741 920.607 831.741Z" fill="#6C63FF"/>
<path opacity="0.1" d="M390.403 719.887H288.46C282.58 719.887 277.813 724.657 277.813 730.541V746.517C277.813 752.401 282.58 757.172 288.46 757.172H390.403C396.283 757.172 401.05 752.401 401.05 746.517V730.541C401.05 724.657 396.283 719.887 390.403 719.887Z" fill="#6C63FF"/>
<path opacity="0.1" d="M519.371 757.172H417.428C411.548 757.172 406.781 761.942 406.781 767.826V783.802C406.781 789.686 411.548 794.456 417.428 794.456H519.371C525.251 794.456 530.018 789.686 530.018 783.802V767.826C530.018 761.942 525.251 757.172 519.371 757.172Z" fill="#6C63FF"/>
<path opacity="0.1" d="M648.34 794.456H546.397C540.517 794.456 535.75 799.227 535.75 805.111V821.087C535.75 826.971 540.517 831.741 546.397 831.741H648.34C654.22 831.741 658.987 826.971 658.987 821.087V805.111C658.987 799.227 654.22 794.456 648.34 794.456Z" fill="#6C63FF"/>
<path opacity="0.1" d="M390.403 663.959H288.46C282.58 663.959 277.813 668.729 277.813 674.614V690.589C277.813 696.474 282.58 701.244 288.46 701.244H390.403C396.283 701.244 401.05 696.474 401.05 690.589V674.614C401.05 668.729 396.283 663.959 390.403 663.959Z" fill="#6C63FF"/>
<path opacity="0.1" d="M519.371 701.244H417.428C411.548 701.244 406.781 706.014 406.781 711.899V727.874C406.781 733.759 411.548 738.529 417.428 738.529H519.371C525.251 738.529 530.018 733.759 530.018 727.874V711.899C530.018 706.014 525.251 701.244 519.371 701.244Z" fill="#6C63FF"/>
<path opacity="0.1" d="M648.34 738.529H546.397C540.517 738.529 535.75 743.299 535.75 749.184V765.159C535.75 771.044 540.517 775.814 546.397 775.814H648.34C654.22 775.814 658.987 771.044 658.987 765.159V749.184C658.987 743.299 654.22 738.529 648.34 738.529Z" fill="#6C63FF"/>
<path opacity="0.1" d="M791.639 719.887H689.696C683.816 719.887 679.049 724.657 679.049 730.541V746.517C679.049 752.401 683.816 757.172 689.696 757.172H791.639C797.519 757.172 802.286 752.401 802.286 746.517V730.541C802.286 724.657 797.519 719.887 791.639 719.887Z" fill="#6C63FF"/>
<path opacity="0.1" d="M920.607 757.172H818.665C812.784 757.172 808.018 761.942 808.018 767.826V783.802C808.018 789.686 812.784 794.456 818.665 794.456H920.607C926.487 794.456 931.254 789.686 931.254 783.802V767.826C931.254 761.942 926.487 757.172 920.607 757.172Z" fill="#6C63FF"/>
<path opacity="0.1" d="M1049.58 794.456H947.633C941.753 794.456 936.986 799.227 936.986 805.111V821.087C936.986 826.971 941.753 831.741 947.633 831.741H1049.58C1055.46 831.741 1060.22 826.971 1060.22 821.087V805.111C1060.22 799.227 1055.46 794.456 1049.58 794.456Z" fill="#6C63FF"/>
<path opacity="0.1" d="M791.639 663.959H689.696C683.816 663.959 679.049 668.729 679.049 674.614V690.589C679.049 696.474 683.816 701.244 689.696 701.244H791.639C797.519 701.244 802.286 696.474 802.286 690.589V674.614C802.286 668.729 797.519 663.959 791.639 663.959Z" fill="#6C63FF"/>
<path opacity="0.1" d="M920.607 701.244H818.665C812.784 701.244 808.018 706.014 808.018 711.899V727.874C808.018 733.759 812.784 738.529 818.665 738.529H920.607C926.487 738.529 931.254 733.759 931.254 727.874V711.899C931.254 706.014 926.487 701.244 920.607 701.244Z" fill="#6C63FF"/>
<path opacity="0.1" d="M1049.58 738.529H947.633C941.753 738.529 936.986 743.299 936.986 749.184V765.159C936.986 771.044 941.753 775.814 947.633 775.814H1049.58C1055.46 775.814 1060.22 771.044 1060.22 765.159V749.184C1060.22 743.299 1055.46 738.529 1049.58 738.529Z" fill="#6C63FF"/>
<path d="M121.302 267.878C180.556 293.576 214.604 346.75 214.604 346.75C214.604 346.75 152.57 358.222 93.3017 332.539C34.0334 306.855 0 253.667 0 253.667C0 253.667 62.0339 242.18 121.302 267.878Z" fill="#6C63FF"/>
<path d="M303.148 169.216C321.476 139.102 352.686 124.761 352.686 124.761C352.686 124.761 354.119 159.092 335.848 189.121C317.578 219.15 286.296 233.476 286.296 233.476C286.296 233.476 284.805 199.159 303.148 169.216Z" fill="#6C63FF"/>
<path d="M168.419 201.439C181.531 248.275 217.67 279.107 217.67 279.107C217.67 279.107 232.559 233.977 219.447 187.127C206.336 140.277 170.181 109.46 170.181 109.46C170.181 109.46 155.293 154.589 168.419 201.439Z" fill="#46455B"/>
<path d="M1204.65 199.331H180.671C174.965 199.331 170.339 203.96 170.339 209.671V712.415C170.339 718.125 174.965 722.755 180.671 722.755H1204.65C1210.36 722.755 1214.98 718.125 1214.98 712.415V209.671C1214.98 203.96 1210.36 199.331 1204.65 199.331Z" fill="#3F3D56"/>
<path opacity="0.1" d="M170.339 691.206H1214.98V712.415C1214.98 715.157 1213.9 717.787 1211.96 719.726C1210.02 721.665 1207.39 722.755 1204.65 722.755H180.671C177.931 722.755 175.303 721.665 173.365 719.726C171.427 717.787 170.339 715.157 170.339 712.415V691.206Z" fill="black"/>
<path d="M345.88 652.487H275.664C273.685 652.487 272.081 654.092 272.081 656.072V687.621C272.081 689.601 273.685 691.206 275.664 691.206H345.88C347.858 691.206 349.462 689.601 349.462 687.621V656.072C349.462 654.092 347.858 652.487 345.88 652.487Z" fill="#6C63FF"/>
<path d="M421.112 685.47H373.823C372.24 685.47 370.957 686.754 370.957 688.338C370.957 689.922 372.24 691.206 373.823 691.206H421.112C422.694 691.206 423.978 689.922 423.978 688.338C423.978 686.754 422.694 685.47 421.112 685.47Z" fill="#6C63FF"/>
<path d="M323.883 301.693C361.7 308.676 400.276 301.693 437.935 296.96L552.387 282.62C557.016 282.032 563.751 279.264 566.473 284.929C568.007 288.098 566.975 294.967 567.09 298.61C567.39 308.648 567.362 318.686 567.09 328.724C566.574 347.912 565.169 367.056 563.378 386.157C559.896 423.543 554.966 460.727 552.502 498.256C551.241 517.358 550.61 536.516 551.169 555.618C551.298 560.178 551.484 564.738 551.757 569.284C552.057 574.375 554.336 581.932 548.79 585.331C545.623 587.281 539.39 587.181 535.764 587.754C530.033 588.658 524.301 589.375 518.454 589.963C479.921 593.82 440.887 592.214 402.21 591.985L285.422 591.383L256.934 591.225C254.355 591.225 245.055 592.774 243.464 589.705C242.791 588.4 244.582 582.291 244.897 580.656C245.337 577.96 245.814 575.269 246.33 572.582C249.655 553.725 253.581 534.982 257.536 516.253C266.034 476.1 274.732 435.747 278.228 394.733C279.962 374.155 278.816 353.39 280.937 332.854C281.926 323.318 283.101 302.037 295.782 301.191C306.53 300.474 317.593 301.191 328.369 301.191C328.939 301.191 329.485 300.964 329.888 300.561C330.292 300.157 330.518 299.61 330.518 299.04C330.518 298.469 330.292 297.922 329.888 297.519C329.485 297.115 328.939 296.889 328.369 296.889C318.194 296.889 308.006 296.616 297.832 296.817C291.068 296.946 286.368 298.552 283.144 304.776C274.904 320.751 275.749 342.061 275.491 359.499C274.875 401.244 268.47 442.099 260.13 482.926C255.931 503.476 251.403 523.954 247.233 544.518C245.27 554.341 243.393 564.193 241.673 574.074C240.87 578.777 236.815 589.145 240.383 593.462C243.951 597.778 254.928 595.455 259.843 595.484L294.034 595.685L359.55 596.057C401.881 596.301 444.354 597.492 486.67 596.244C506.875 595.642 528.227 594.81 547.902 589.977C553.763 588.543 556.586 585.847 556.815 579.595C557.159 569.901 555.583 559.905 555.382 550.168C553.949 466.851 573.509 384.695 571.503 301.349C571.374 295.684 573.509 281.401 567.319 277.974C564.539 276.425 560.928 277.271 558.004 277.615C552.416 278.261 546.841 279.049 541.253 279.709L468.672 288.772C445.472 291.64 422.286 294.738 399.043 297.376C374.439 300.244 349.591 301.951 325.073 297.376C322.364 296.874 321.204 301.019 323.926 301.521L323.883 301.693Z" fill="#6C63FF"/>
<path d="M278.257 352.386L564.596 338.332C567.362 338.189 567.376 333.887 564.596 334.03L278.257 348.084C275.506 348.213 275.491 352.515 278.257 352.386Z" fill="#6C63FF"/>
<path d="M366.471 316.922C365.671 317.771 365.089 318.804 364.778 319.929C364.466 321.054 364.434 322.239 364.684 323.379C364.934 324.52 365.458 325.582 366.212 326.474C366.966 327.365 367.925 328.059 369.008 328.495C372.862 330.259 377.391 328.782 381.217 327.821C386.949 326.387 392.681 325.111 398.57 324.064C411.389 321.793 424.373 320.584 437.39 320.45C443.322 320.378 449.212 320.651 455.144 320.909C459.443 321.081 464.072 321.425 467.712 318.758C471.867 315.718 473.214 309.781 469.145 306.081C463.413 300.847 451.06 303.887 444.44 304.432C420.417 306.429 396.55 309.993 372.991 315.101C370.297 315.675 371.429 319.833 374.138 319.245C389.681 315.89 405.343 313.194 421.125 311.157C428.883 310.201 436.654 309.393 444.44 308.734C448.108 308.433 451.777 308.16 455.445 307.945C456.878 307.859 458.397 307.701 459.859 307.744C464.402 307.845 464.932 307.027 462.209 312.52C459.787 317.381 460.561 316.822 456.362 316.664C454.586 316.664 452.809 316.463 451.032 316.377C447.392 316.224 443.752 316.143 440.112 316.133C432.365 316.133 424.636 316.506 416.927 317.252C410.392 317.883 403.872 318.772 397.409 319.919C393.368 320.636 389.356 321.468 385.358 322.386C383.595 322.802 381.819 323.232 380.056 323.676C379.211 323.906 378.351 324.107 377.505 324.322C374.372 325.412 371.702 323.978 369.495 320.02C371.415 318.026 368.392 314.972 366.457 316.98L366.471 316.922Z" fill="#6C63FF"/>
<path d="M418.374 378.127C397.639 377.324 375.241 382.931 361.585 399.637C350.895 412.701 344.805 435.115 356.125 449.829C368.291 465.603 394.974 462.821 411.066 456.095C428.09 448.925 446.719 434.14 451.835 415.641C458.211 392.539 437.505 375.072 415.938 374.814C413.173 374.814 413.173 379.116 415.938 379.116C428.233 379.26 440.299 384.537 446.031 395.995C452.035 408.07 446.862 420.746 438.866 430.412C426.055 445.799 406.022 457.4 385.616 457.071C373.364 456.884 359.822 452.682 356.025 439.747C352.901 429.265 355.28 417.807 360.725 408.514C372.504 388.438 396.478 381.64 418.46 382.501C421.226 382.601 421.226 378.299 418.46 378.199L418.374 378.127Z" fill="#6C63FF"/>
<path d="M397.782 409.991C396.898 409.663 395.946 409.565 395.013 409.704C394.081 409.844 393.199 410.217 392.45 410.79C391.7 411.362 391.108 412.115 390.727 412.979C390.347 413.842 390.191 414.787 390.274 415.727C390.704 421.32 396.865 422.897 401.494 422.568C405.492 422.223 410.163 420.746 408.759 415.742C408.501 414.856 408.055 414.036 407.451 413.338C406.848 412.64 406.101 412.081 405.263 411.698C403.98 411.189 402.589 411.016 401.222 411.196C400.691 411.196 395.834 412.974 397.897 410.837L394.515 410.393C394.891 410.763 395.178 411.213 395.357 411.709C395.535 412.206 395.6 412.736 395.547 413.261C395.553 413.636 395.657 414.002 395.848 414.325C396.038 414.648 396.309 414.915 396.634 415.102C396.959 415.288 397.327 415.387 397.702 415.389C398.076 415.39 398.445 415.294 398.771 415.111C399.263 414.905 399.802 414.84 400.329 414.924C400.855 415.008 401.347 415.237 401.751 415.585C402.154 415.934 402.453 416.388 402.612 416.897C402.772 417.406 402.787 417.95 402.655 418.466C402.539 418.963 402.603 419.485 402.834 419.939C403.065 420.394 403.449 420.752 403.919 420.951C404.388 421.15 404.912 421.176 405.399 421.026C405.886 420.876 406.305 420.558 406.581 420.13C408.014 417.549 409.748 412.415 407.598 409.719C406.165 407.897 403.4 408.442 401.68 409.504C400.619 410.255 399.63 411.105 398.728 412.042C396.994 413.576 395.862 414.293 396.507 411.353C397.582 406.005 402.683 401.745 407.34 399.609L404.188 397.185C402.535 403.401 399.58 409.194 395.518 414.179L399.187 415.699C399.083 413.73 399.588 411.776 400.635 410.105C401.681 408.435 403.217 407.128 405.033 406.363H402.927L404.045 408.199C403.629 410.909 407.77 412.07 408.186 409.331C408.73 405.789 406.495 401.186 402.354 402.921C397.41 404.986 394.845 410.651 394.945 415.699C394.945 417.419 397.381 418.753 398.628 417.233C403.185 411.692 406.512 405.245 408.386 398.318C408.486 397.907 408.464 397.476 408.323 397.077C408.182 396.679 407.929 396.33 407.593 396.073C407.257 395.816 406.854 395.662 406.433 395.631C406.011 395.599 405.59 395.691 405.22 395.895C400.927 397.836 397.299 400.998 394.788 404.986C393.039 407.854 390.847 412.329 392.624 415.627C392.915 416.155 393.308 416.619 393.78 416.994C394.252 417.369 394.793 417.646 395.373 417.81C395.952 417.974 396.559 418.022 397.157 417.95C397.755 417.878 398.333 417.688 398.857 417.391C400.182 416.605 401.392 415.64 402.454 414.523C402.984 414.049 403.572 413.232 404.274 413.089C404.904 412.658 404.876 412.902 404.174 413.849C404.164 415.335 403.732 416.787 402.927 418.036L406.853 419.685C407.207 418.346 407.166 416.933 406.734 415.617C406.303 414.301 405.5 413.139 404.422 412.27C403.345 411.4 402.039 410.862 400.662 410.72C399.285 410.578 397.897 410.838 396.665 411.468L399.903 413.332C399.971 411.508 399.398 409.717 398.284 408.27C398.115 407.991 397.885 407.754 397.612 407.576C397.339 407.397 397.03 407.283 396.707 407.24C396.384 407.197 396.055 407.228 395.745 407.329C395.435 407.431 395.152 407.6 394.916 407.826C392.738 410.106 392.323 414.049 395.06 416.158C397.109 417.721 398.112 416.158 400.362 415.799C408 414.81 403.543 418.251 400.849 418.366C399.644 418.495 398.426 418.408 397.252 418.108C394.262 417.094 394.076 415.789 396.693 414.193C399.258 415.24 400.362 411.081 397.84 410.049L397.782 409.991Z" fill="#6C63FF"/>
<path d="M394.329 417.85C396.091 423.586 388.812 425.479 385.358 427.458C382.935 428.818 380.821 430.669 379.153 432.893C375.542 437.74 374.195 443.906 373.006 449.714C372.461 452.424 376.603 453.572 377.161 450.861C377.817 446.594 379.036 442.432 380.787 438.485C383.366 433.352 387.063 431.631 391.878 428.992C396.693 426.353 400.175 422.266 398.47 416.702C397.668 414.064 393.512 415.197 394.329 417.85Z" fill="#6C63FF"/>
<path d="M401.494 414.967C400.468 415.109 399.533 415.629 398.87 416.424C398.208 417.22 397.866 418.235 397.911 419.269C397.911 420.976 399.043 422.066 399.817 423.428C401.654 426.215 403.055 429.267 403.973 432.477C404.661 435.56 405.334 441.081 403.729 443.949C400.763 449.269 395.403 448.251 390.832 448.251C386.533 448.251 383.209 449.685 383.352 443.691C383.438 440.321 385.788 436.908 387.651 434.255L383.725 433.739C384.553 438.118 384.989 442.562 385.029 447.018C385.029 449.011 388.081 450.116 389.027 448.094C391.33 443.244 393.159 438.182 394.486 432.979L390.259 432.405L391.004 443.304C391.017 443.769 391.178 444.218 391.466 444.584C391.753 444.95 392.15 445.213 392.599 445.335C393.047 445.458 393.523 445.432 393.956 445.263C394.389 445.093 394.756 444.788 395.002 444.394C395.504 443.839 395.872 443.177 396.077 442.458C396.22 441.784 394.902 437.238 394.372 438.858L398.585 439.432L398.886 429.078L394.587 429.652C395.495 432.571 395.769 435.652 395.389 438.686C395.117 441.081 399.144 441.626 399.688 439.26L402.382 425.35L398.456 425.852C399.389 427.776 399.646 429.958 399.187 432.047C398.871 434.8 403.17 434.771 403.486 432.047C403.851 429.191 403.393 426.291 402.167 423.686C401.949 423.327 401.632 423.039 401.253 422.858C400.875 422.676 400.452 422.608 400.036 422.663C399.62 422.718 399.228 422.893 398.91 423.166C398.591 423.439 398.359 423.799 398.241 424.202L395.532 438.113L399.76 438.686C400.19 435.268 399.862 431.796 398.8 428.519C398.656 428.025 398.34 427.599 397.91 427.318C397.479 427.037 396.963 426.92 396.453 426.987C395.944 427.055 395.475 427.303 395.133 427.687C394.79 428.07 394.597 428.564 394.587 429.078L394.286 439.432C394.286 441.941 397.768 442.3 398.513 440.006L398.742 439.303C398.841 438.937 398.843 438.551 398.748 438.184C398.652 437.816 398.463 437.481 398.198 437.209C393.741 432.362 392.838 440.077 391.291 442.214L395.303 443.304L394.558 432.405C394.4 430.082 390.961 429.365 390.331 431.832C389.12 436.682 387.44 441.403 385.315 445.928L389.328 447.018C389.281 442.176 388.802 437.348 387.895 432.592C387.522 430.613 384.928 430.699 383.968 432.075C381.102 436.205 376.144 445.225 379.97 450.173C383.309 454.475 393.813 452.812 398.298 452.539C405.377 452.138 407.942 447.649 408.716 440.966C409.085 437.766 408.905 434.527 408.186 431.387C407.799 429.695 403.887 418.968 402.712 419.183C405.434 418.681 404.274 414.523 401.565 415.025L401.494 414.967Z" fill="#6C63FF"/>
<path d="M393.168 424.633L381.432 440.135L385.143 442.3L393.741 429.853L389.815 428.189L385.53 444.551C385.415 445.048 385.478 445.57 385.71 446.024C385.941 446.479 386.325 446.837 386.794 447.036C387.264 447.235 387.788 447.261 388.275 447.111C388.762 446.961 389.181 446.644 389.457 446.215C391.406 442.982 393.595 439.9 396.005 436.994L392.423 434.9C391.461 438.605 389.606 442.017 387.021 444.838L390.617 446.932C390.838 444.95 391.364 443.015 392.179 441.196C393.283 438.715 389.786 436.521 388.468 439.016C387.255 441.289 385.871 443.465 384.327 445.527L388.253 446.043L389.127 441.956L385.201 441.44L385.831 445.025C385.935 445.385 386.13 445.713 386.398 445.975C386.666 446.238 386.998 446.426 387.361 446.521C387.723 446.617 388.105 446.616 388.467 446.52C388.829 446.423 389.161 446.234 389.428 445.971C393.062 442.207 395.977 437.809 398.026 432.993H394.329C395.301 434.786 395.983 436.722 396.349 438.729C396.865 441.311 400.29 440.35 400.562 438.156C401.178 433.352 401.494 428.515 401.508 423.672H397.209V432.692C397.209 435.029 401.035 435.718 401.436 433.266C401.72 431.09 402.436 428.993 403.543 427.099H399.774C400.682 428.565 401.178 430.25 401.207 431.975C401.207 432.545 401.434 433.093 401.837 433.496C402.24 433.899 402.787 434.126 403.357 434.126C403.927 434.126 404.473 433.899 404.877 433.496C405.28 433.093 405.506 432.545 405.506 431.975L406.051 429.107H401.909C402.325 431.645 403.901 445.942 398.298 444.265C397.352 444.035 397.08 444.093 397.481 444.422L398.757 441.698L401.752 435.345L397.739 434.255C397.997 437.209 398.27 441.425 396.493 443.949C395.06 446 390.646 446.817 388.396 445.613C386.911 444.553 385.642 443.219 384.656 441.683L381.719 444.551C384.097 446.287 387.952 450.546 391.019 450.79C393.354 450.976 395.318 449.04 396.851 447.491C399.203 445.059 401.037 442.174 402.241 439.011C403.446 435.849 403.996 432.474 403.858 429.093C403.858 428.522 403.632 427.975 403.229 427.572C402.825 427.168 402.279 426.941 401.709 426.941C401.139 426.941 400.592 427.168 400.189 427.572C399.786 427.975 399.559 428.522 399.559 429.093V433.997C399.559 434.567 399.786 435.115 400.189 435.518C400.592 435.921 401.139 436.148 401.709 436.148C402.279 436.148 402.825 435.921 403.229 435.518C403.632 435.115 403.858 434.567 403.858 433.997V421.965C403.858 421.395 403.632 420.848 403.229 420.444C402.825 420.041 402.279 419.814 401.709 419.814C401.139 419.814 400.592 420.041 400.189 420.444C399.786 420.848 399.559 421.395 399.559 421.965C399.551 424.849 399.302 427.727 398.814 430.57L403.041 431.143C402.705 427.717 402.547 424.275 402.568 420.832C402.562 420.317 402.37 419.821 402.029 419.435C401.688 419.049 401.219 418.799 400.709 418.729C400.199 418.66 399.68 418.776 399.248 419.057C398.816 419.337 398.5 419.764 398.355 420.259C397.711 422.998 396.923 425.694 396.163 428.376L400.089 427.859L399.788 426.712C399.588 423.973 395.289 423.959 395.49 426.712C395.537 427.873 395.84 429.009 396.378 430.039C397.209 431.789 399.803 431.172 400.304 429.523C401.121 426.827 401.852 424.131 402.497 421.406L398.27 420.832C398.248 424.275 398.406 427.717 398.742 431.143C398.957 433.352 402.511 434.298 402.955 431.717C403.528 428.478 403.83 425.197 403.858 421.908H399.559V433.94H403.858V429.035H399.559C399.812 434.445 397.934 439.738 394.329 443.777C393.77 444.412 393.167 445.007 392.523 445.555C391.506 446.53 390.574 446.387 389.758 445.111C387.723 444.265 385.616 442.085 383.839 440.809C382.062 439.532 379.626 442.056 380.887 443.748C384.183 448.137 389.098 453.027 395.217 450.919C401.651 448.638 402.525 439.92 402.038 434.183C401.881 432.276 399.029 430.985 398.04 433.108C396.607 436.134 395.174 439.145 393.741 442.185C393.24 443.246 392.308 444.709 392.452 445.971C392.924 449.198 396.837 448.667 399.244 448.481C408.573 447.778 407.097 434.542 406.022 427.888C405.664 425.68 402.454 426.024 401.881 427.888C401.425 429.198 401.188 430.574 401.178 431.961H405.477C405.322 429.495 404.632 427.092 403.457 424.919C403.265 424.599 402.993 424.333 402.668 424.149C402.342 423.965 401.975 423.868 401.601 423.868C401.227 423.868 400.86 423.965 400.535 424.149C400.21 424.333 399.938 424.599 399.745 424.919C398.464 427.133 397.599 429.564 397.195 432.09L401.494 432.663V423.643C401.494 423.073 401.267 422.526 400.864 422.122C400.461 421.719 399.914 421.492 399.344 421.492C398.774 421.492 398.227 421.719 397.824 422.122C397.421 422.526 397.195 423.073 397.195 423.643C397.18 428.486 396.865 433.323 396.249 438.127L400.476 437.553C399.99 435.209 399.164 432.948 398.026 430.842C397.834 430.521 397.562 430.256 397.237 430.072C396.911 429.887 396.544 429.79 396.17 429.79C395.796 429.79 395.429 429.887 395.104 430.072C394.779 430.256 394.507 430.521 394.314 430.842C392.446 435.333 389.758 439.437 386.39 442.945L389.987 443.892L389.356 440.307C389.027 438.399 386.333 438.342 385.43 439.79C384.718 440.869 384.235 442.082 384.01 443.355C383.786 444.628 383.825 445.933 384.126 447.19C384.484 449.226 387.064 449.011 388.052 447.706C389.597 445.65 390.981 443.478 392.194 441.21L388.482 439.03C387.491 441.173 386.816 443.448 386.476 445.785C386.218 447.678 388.468 449.657 390.073 447.878C393.153 444.505 395.384 440.444 396.579 436.033C397.109 434.083 394.415 432.233 392.982 433.94C390.345 437.101 387.95 440.457 385.817 443.978L389.743 445.641L394.114 429.336C394.229 428.84 394.166 428.318 393.935 427.863C393.703 427.409 393.319 427.051 392.85 426.852C392.381 426.653 391.856 426.626 391.369 426.776C390.882 426.927 390.464 427.244 390.187 427.673L381.59 440.135C379.985 442.443 383.667 444.437 385.301 442.3L396.994 426.812C398.656 424.604 394.931 422.51 393.283 424.633H393.168Z" fill="#6C63FF"/>
<path d="M575.988 476.387C593.184 465.861 606.855 450.159 622.044 437.023C638.524 422.783 655.82 409.518 673.632 396.956C708.224 372.577 744.55 350.765 780.848 329.011C781.318 328.713 781.655 328.245 781.787 327.703C781.919 327.162 781.836 326.591 781.556 326.11C781.275 325.629 780.819 325.275 780.284 325.123C779.748 324.972 779.175 325.034 778.684 325.297C742.387 347.051 706.046 368.82 671.454 393.242C655.132 404.714 639.197 416.875 623.922 429.781C607.299 443.835 592.496 461.33 573.767 472.673C571.403 474.107 573.567 477.836 575.931 476.387H575.988Z" fill="#6C63FF"/>
<path d="M836.347 262.214C817.718 264.107 797.657 268.853 786.193 285.158C776.291 299.183 776.506 323.648 785.806 338.046C796.367 354.408 817.948 354.996 834.714 349.704C851.479 344.413 868.833 335.134 868.675 315.087C868.589 304.331 864.706 293.131 860.421 283.38C856.724 274.962 850.175 267.606 840.259 268.538C837.522 268.796 837.494 273.098 840.259 272.84C853.543 271.607 857.813 287.395 860.966 297.362C863.832 306.669 866.483 317.682 861.983 326.932C857.484 336.181 846.636 340.899 837.365 344.284C827.334 347.926 816.314 350.149 805.839 347.152C785.089 341.344 779.357 315.029 785.333 296.358C792.211 274.848 816.572 268.523 836.419 266.516C839.141 266.243 839.17 261.941 836.419 262.214H836.347Z" fill="#6C63FF"/>
<path d="M865.007 428.562C846.379 430.455 826.317 435.202 814.853 451.507C804.951 465.531 805.166 489.996 814.466 504.394C825.027 520.756 846.608 521.344 863.374 516.052C880.14 510.761 897.493 501.483 897.335 481.435C897.249 470.68 893.366 459.48 889.081 449.728C885.384 441.31 878.836 433.954 868.919 434.886C866.182 435.144 866.154 439.446 868.919 439.188C882.203 437.955 886.473 453.744 889.626 463.71C892.492 473.017 895.143 484.03 890.643 493.28C886.144 502.53 875.296 507.248 866.025 510.632C855.994 514.274 844.974 516.497 834.499 513.5C813.749 507.692 808.017 481.378 813.993 462.706C820.871 441.196 845.232 434.872 865.079 432.864C867.802 432.592 867.83 428.289 865.079 428.562H865.007Z" fill="#6C63FF"/>
<path d="M808.247 304.102L821.817 319.589C822.086 319.849 822.417 320.034 822.778 320.128C823.14 320.221 823.519 320.22 823.88 320.123C824.24 320.026 824.57 319.838 824.836 319.576C825.103 319.314 825.297 318.988 825.4 318.629C828.266 311.086 827.721 303.27 828.394 295.34C829.137 287.144 831.193 279.12 834.485 271.578C841.096 256.28 852.305 243.423 866.555 234.795C868.919 233.361 866.756 229.632 864.391 231.081C850.341 239.547 839.069 251.939 831.963 266.731C828.484 273.929 826.07 281.595 824.798 289.489C823.365 298.796 824.669 308.547 821.23 317.481L824.826 316.521L811.328 301.062C809.493 298.982 806.47 302.037 808.29 304.102H808.247Z" fill="#6C63FF"/>
<path d="M582.91 493.151C656.823 490.895 730.756 490.417 804.707 491.717C807.473 491.717 807.473 487.415 804.707 487.415C730.775 486.096 656.842 486.574 582.91 488.849C580.144 488.935 580.13 493.237 582.91 493.151Z" fill="#6C63FF"/>
<path d="M820.154 450.732C845.422 460.656 869.726 472.878 892.764 487.243C895.114 488.677 897.278 484.991 894.928 483.529C871.587 468.986 846.96 456.62 821.358 446.588C818.793 445.57 817.675 449.728 820.226 450.732H820.154Z" fill="#6C63FF"/>
<path d="M866.039 431.244C840.416 461.135 825.574 498.776 823.895 538.122C823.78 540.89 828.079 540.89 828.194 538.122C829.822 499.905 844.218 463.341 869.077 434.284C870.868 432.19 867.844 429.136 866.039 431.244Z" fill="#6C63FF"/>
<path d="M292.916 477.534L453.081 475.441L471.495 475.197C474.805 475.197 478.115 475.082 481.425 475.068C486.083 475.068 489.221 478.94 489.135 483.672C488.92 493.71 482.615 493.352 474.361 493.71L454.457 494.614L373.407 498.184C358.891 498.83 344.36 499.618 329.844 500.12C316.747 500.522 291.842 496.248 297.659 477.176C298.462 474.523 294.321 473.39 293.504 476.029C290.638 485.407 295.711 494.929 303.879 499.848C315.471 506.817 330.747 504.451 343.544 503.878L443.05 499.36L467.21 498.285C473.401 497.998 482.013 499.26 487.702 496.378C494.38 493.008 495.555 479.628 491.342 473.992C489.178 471.124 486.14 470.866 482.744 470.737C473.831 470.393 464.76 470.981 455.832 471.096L406.222 471.755L292.859 473.189C290.093 473.189 290.093 477.491 292.859 477.491L292.916 477.534Z" fill="#6C63FF"/>
<path d="M940.024 1004.54C936.413 1006.81 932.286 1008.08 928.56 1010.08C924.834 1012.07 921.209 1015.07 920.148 1019.2C919.753 1020.48 919.819 1021.86 920.335 1023.1C921.262 1024.59 922.68 1025.72 924.347 1026.28C931.916 1029.65 940.091 1031.43 948.372 1031.52C956.653 1031.62 964.867 1030.02 972.51 1026.83C975.199 1025.53 977.977 1024.43 980.821 1023.53C984.325 1022.81 987.892 1022.45 991.468 1022.44C995.227 1022.22 998.967 1021.74 1002.66 1021.01C1004.52 1020.8 1006.28 1020.07 1007.73 1018.9C1009.06 1017.36 1009.86 1015.44 1010.01 1013.42C1011.71 1002.25 1009.15 990.845 1002.85 981.469C1002.05 980.155 1000.99 979.026 999.722 978.156C998.18 977.359 996.484 976.904 994.75 976.823C987.585 975.948 980.076 974.342 972.839 974.17C967.652 974.055 965.044 976.522 961.375 980.092C953.795 987.679 949.367 998.706 940.024 1004.54Z" fill="#323444"/>
<path d="M1045.62 1003.48C1045.62 1010.51 1046.47 1017.95 1050.72 1023.56C1052.67 1025.98 1055.03 1028.05 1057.69 1029.65C1066.69 1035.39 1078.61 1037.5 1088.09 1032.64C1089.63 1031.95 1090.94 1030.84 1091.88 1029.45C1093.31 1026.96 1092.55 1023.85 1091.75 1021.09L1078.02 973.482C1069.15 974.844 1056.11 975.805 1048.23 980.308C1042.51 983.563 1045.62 997.201 1045.62 1003.48Z" fill="#323444"/>
<path d="M931.971 710.322C931.139 712.946 928.13 714.165 926.482 716.373C924.548 718.969 924.748 722.568 925.45 725.723C926.318 730.375 928.501 734.68 931.741 738.127C933.386 739.835 935.414 741.124 937.658 741.887C939.901 742.651 942.295 742.866 944.638 742.516C949.252 741.641 953.236 737.554 953.394 732.865C953.311 730.732 952.855 728.63 952.047 726.655L942.274 698.376C942.234 698.176 942.152 697.987 942.033 697.821C941.915 697.656 941.762 697.517 941.586 697.415C941.217 697.333 940.831 697.4 940.511 697.602C938.204 698.691 933.575 699.839 932.228 702.234C930.881 704.628 932.945 707.726 931.971 710.322Z" fill="#FBB3B2"/>
<path d="M927.399 708.902C930.968 708.343 934.091 706.249 937.43 704.872C940.769 703.496 944.954 702.965 947.762 705.259C948.565 705.919 949.338 706.822 950.385 706.808C948.962 699.796 946.81 692.952 943.965 686.387C943.865 686.073 943.669 685.797 943.406 685.599C943.015 685.44 942.578 685.44 942.188 685.599L932.544 688.123C928.976 689.055 928.56 688.768 928.832 692.281C928.904 693.844 929.707 708.902 927.399 708.902Z" fill="#323444"/>
<path d="M926.339 504.695C924.906 506.903 924.906 509.657 924.906 512.252C924.906 524.944 925.035 537.706 926.912 550.269C927.357 553.28 927.916 556.292 928.202 559.332C928.527 563.564 928.594 567.812 928.403 572.052L926.97 627.262C926.798 634.016 926.454 641.273 922.284 646.579C921.019 648.357 920.425 650.527 920.607 652.702C921.696 666.555 923.989 680.293 926.268 693.988C929.936 692.332 933.944 691.569 937.964 691.76C941.984 691.952 945.902 693.094 949.396 695.092C956.626 672.342 960.625 648.688 961.275 624.824C961.605 613.079 961.103 601.263 962.909 589.662C965.933 570.13 964.7 550.097 962.479 530.45C961.777 524.227 960.287 517.816 956.303 512.998C952.532 508.782 947.509 505.887 941.973 504.738C936.671 503.347 931.928 504.781 926.339 504.695Z" fill="#5B5583"/>
<path opacity="0.1" d="M926.339 504.695C924.906 506.903 924.906 509.657 924.906 512.252C924.906 524.944 925.035 537.706 926.912 550.269C927.357 553.28 927.916 556.292 928.202 559.332C928.527 563.564 928.594 567.812 928.403 572.052L926.97 627.262C926.798 634.016 926.454 641.273 922.284 646.579C921.019 648.357 920.425 650.527 920.607 652.702C921.696 666.555 923.989 680.293 926.268 693.988C929.936 692.332 933.944 691.569 937.964 691.76C941.984 691.952 945.902 693.094 949.396 695.092C956.626 672.342 960.625 648.688 961.275 624.824C961.605 613.079 961.103 601.263 962.909 589.662C965.933 570.13 964.7 550.097 962.479 530.45C961.777 524.227 960.287 517.816 956.303 512.998C952.532 508.782 947.509 505.887 941.973 504.738C936.671 503.347 931.928 504.781 926.339 504.695Z" fill="black"/>
<path d="M943.85 664.805C934.239 714.092 939.486 765.125 958.925 811.421C960.604 814.848 961.782 818.499 962.421 822.262C963.209 829.289 959.971 836.043 958.122 842.841C953.823 858.3 956.302 874.763 959.054 890.58C960.2 897.177 961.38 903.768 962.593 910.355C963.783 916.78 964.929 923.764 961.948 929.586C964.513 940.284 966.032 950.881 968.597 961.579C968.869 962.425 968.953 963.321 968.841 964.203C968.324 965.603 967.413 966.824 966.219 967.717C964.307 969.657 962.933 972.061 962.232 974.694C961.531 977.326 961.527 980.096 962.221 982.731C968.769 978.027 977.898 979.677 985.378 982.731C992.858 985.786 1000.22 989.901 1008.31 989.901C1007.13 980.408 1006 970.441 1009.49 961.536C1011.53 956.374 1015.11 951.498 1015.01 945.977C1014.91 941.029 1011.89 936.612 1011.16 931.722C1010.89 928.68 1011 925.615 1011.5 922.602C1013.42 905.049 1011.24 887.325 1009.06 869.801C1008.82 866.345 1008.01 862.954 1006.66 859.762C1005.64 857.697 1004.12 855.718 1004.15 853.41C1004.15 850.728 1006.31 848.548 1007.12 845.996C1008.55 841.292 1005.91 834.896 1009.88 831.985C1020.34 824.299 1016.33 805.943 1016.1 792.965C1015.92 781.77 1015.44 770.584 1014.67 759.409C1021.25 777.941 1023.95 797.635 1022.58 817.258C1022.12 823.682 1021.27 830.436 1023.78 836.373C1025.7 840.934 1029.51 844.691 1030.55 849.523C1031.19 852.506 1030.73 855.589 1030.87 858.63C1031.02 861.67 1032.05 864.982 1034.67 866.517C1034.87 880.341 1036.11 895.126 1036.32 908.95C1036.18 916.017 1036.76 923.08 1038.04 930.03C1038.68 932.241 1039.04 934.526 1039.1 936.828C1038.78 939.714 1038.01 942.533 1036.84 945.188C1034.34 952.588 1033.69 960.487 1034.93 968.198C1036.18 975.908 1039.3 983.196 1044 989.428C1047.38 983.419 1054.43 980.236 1061.31 979.734C1068.19 979.232 1074.98 980.967 1081.65 982.717C1080.63 974.338 1082.29 965.852 1086.4 958.482C1087.51 956.821 1088.35 955.003 1088.91 953.09C1089.68 949.447 1087.88 945.819 1086.9 942.22C1085.31 936.483 1085.87 930.303 1086.25 924.308C1087.5 904.233 1086.61 884.081 1083.59 864.194C1083.13 860.276 1082.21 856.426 1080.86 852.721C1080.34 851.402 1079.71 850.14 1079.28 848.806C1078.6 846.414 1078.22 843.949 1078.13 841.464L1076.49 818.52C1075.33 802.444 1080.6 786.569 1084.28 770.881C1085.93 763.854 1087.72 756.842 1088.82 749.7C1090.33 739.977 1090.57 730.039 1092.78 720.446C1094.76 711.842 1098.33 703.452 1099.07 694.633C1100.22 680.967 1094.54 667.759 1089.04 655.226C1086.75 650.063 1078.08 650.58 1072.5 649.662C1032.97 643.166 991.325 643.122 954.038 657.764C950.182 659.363 946.709 661.763 943.85 664.805Z" fill="#3C354C"/>
<path d="M972.352 410.278L976.737 427.343C977.929 431.257 978.59 435.313 978.7 439.403C978.746 440.895 978.416 442.375 977.74 443.705C977.019 444.798 976.094 445.743 975.018 446.487C972.023 448.768 969.945 454.088 966.52 455.665C968.283 458.734 970.719 456.741 973.9 458.275C979.503 461 984.633 464.915 990.709 466.263C996.441 467.525 1002.46 466.335 1008.15 464.829C1016.22 462.635 1024.24 459.609 1030.73 454.317C1037.22 449.026 1040.92 444.351 1040.89 435.99C1033.73 436.836 1027.35 429.594 1024.18 423.084C1023.09 420.609 1022.28 418.015 1021.78 415.354L1017.94 398.447C1013.75 399.365 1010.34 402.362 1006.34 403.925C1002.34 405.488 997.616 405.632 993.174 405.832C985.288 406.191 977.446 407.208 969.73 408.873C968.669 409.088 967.337 409.762 967.595 410.794" fill="#FBB3B2"/>
<path opacity="0.1" d="M972.352 410.278L976.737 427.343C977.929 431.257 978.59 435.313 978.7 439.403C978.746 440.895 978.416 442.375 977.74 443.705C977.019 444.798 976.094 445.743 975.018 446.487C972.023 448.768 969.945 454.088 966.52 455.665C968.283 458.734 970.719 456.741 973.9 458.275C979.503 461 984.633 464.915 990.709 466.263C996.441 467.525 1002.46 466.335 1008.15 464.829C1016.22 462.635 1024.24 459.609 1030.73 454.317C1037.22 449.026 1040.92 444.351 1040.89 435.99C1033.73 436.836 1027.35 429.594 1024.18 423.084C1023.09 420.609 1022.28 418.015 1021.78 415.354L1017.94 398.447C1013.75 399.365 1010.34 402.362 1006.34 403.925C1002.34 405.488 997.616 405.632 993.174 405.832C985.288 406.191 977.446 407.208 969.73 408.873C968.669 409.088 967.337 409.762 967.595 410.794" fill="black"/>
<path d="M991.182 419.685C1012.14 419.685 1029.13 402.684 1029.13 381.712C1029.13 360.74 1012.14 343.739 991.182 343.739C970.225 343.739 953.236 360.74 953.236 381.712C953.236 402.684 970.225 419.685 991.182 419.685Z" fill="#FBB3B2"/>
<path d="M1001.63 444.308C1003.66 439.922 1006.59 436.013 1010.23 432.835C1015.57 428.146 1022.88 424.346 1024.14 417.348L1035.72 430.842C1036.35 431.468 1036.84 432.221 1037.15 433.051C1037.3 433.829 1037.28 434.629 1037.09 435.398C1036.9 436.167 1036.55 436.887 1036.06 437.51C1033.2 442.085 1028.68 445.355 1024.41 448.667C1014.62 456.426 1005.25 464.697 996.34 473.447C995.947 473.904 995.421 474.225 994.835 474.365C994.282 474.38 993.736 474.225 993.273 473.921C985.583 469.879 978.776 464.341 973.255 457.63C972.839 457.128 972.323 456.554 971.65 456.597C971.244 456.672 970.869 456.867 970.575 457.157C966.72 460.312 962.507 464.083 957.563 463.595C963.969 458.992 967.594 451.306 968.941 443.519C969.208 440.854 969.755 438.224 970.575 435.675C971 434.399 971.732 433.248 972.706 432.322C973.681 431.397 974.868 430.726 976.164 430.369C973.04 435.144 975.175 441.913 979.374 445.77C983.453 449.236 988.344 451.609 993.589 452.668C998.461 453.586 999.894 448.065 1001.63 444.308Z" fill="#323444"/>
<path d="M952.261 668.706C957.664 670.039 962.78 672.305 968.024 673.983C977.583 676.979 987.643 678.037 997.615 677.095C1000.68 677.027 1003.67 676.077 1006.21 674.356C1006.89 673.811 1007.5 673.166 1008.22 672.664C1009.42 671.944 1010.72 671.407 1012.07 671.072C1025.21 666.956 1036.22 658.08 1046.9 649.389C1047.24 649.103 1047.63 648.744 1047.6 648.285C1047.55 647.973 1047.4 647.685 1047.17 647.468L1041.55 641.015C1026.82 643.524 1011.73 642.578 996.784 642.205C993.716 642.068 990.642 642.15 987.585 642.449C984.633 642.793 981.724 643.539 978.815 644.169C967.766 646.579 956.474 647.496 945.283 649.074C944.5 649.132 943.74 649.367 943.062 649.762C942.59 650.127 942.187 650.574 941.872 651.082L937.946 656.603C936.422 658.46 935.3 660.613 934.65 662.927C933.733 667.229 935.653 668.663 939.307 668.103C943.624 667.471 948.022 667.676 952.261 668.706Z" fill="#323444"/>
<path d="M996.183 466.879C991.799 462.384 986.83 458.501 981.409 455.335C979.219 453.943 976.789 452.971 974.244 452.467C972.963 452.214 971.643 452.245 970.375 452.557C969.108 452.869 967.924 453.455 966.907 454.274C965.632 455.407 964.829 456.985 963.597 458.175C962.046 459.479 960.268 460.485 958.352 461.143C951.829 463.933 945.646 467.459 939.924 471.655C936.805 473.838 933.994 476.433 931.569 479.37C925.078 487.687 924.104 499.002 924.276 509.556C924.405 516.899 931.441 522.348 936.284 527.84C940.827 533.245 944.938 538.999 948.579 545.049C951.187 549.179 953.91 553.653 953.58 558.572C953.308 562.601 950.958 566.387 951.33 570.403C951.459 571.837 951.918 573.156 952.047 574.547C952.305 577.415 951.173 580.283 950.886 583.151C950.499 587.209 951.818 591.239 951.889 595.326C951.837 598.124 951.481 600.908 950.829 603.629C948.077 616.736 944.624 629.915 945.326 643.295L937.387 644.729C938.139 645.466 938.707 646.371 939.045 647.369C939.383 648.367 939.481 649.43 939.332 650.473C939.183 651.517 938.79 652.51 938.186 653.373C937.582 654.236 936.783 654.944 935.854 655.441C948.249 659.585 961.648 657.492 974.788 657.477C985.665 657.477 996.498 658.911 1007.36 658.711C1018.22 658.51 1029.43 656.545 1038.38 650.393C1040.82 648.73 1043.06 646.779 1045.62 645.331C1049.06 643.549 1052.76 642.338 1056.58 641.746C1063.67 640.394 1070.87 639.75 1078.08 639.824C1081.6 639.824 1085.44 639.968 1088.25 637.845C1091.35 635.493 1092.14 631.234 1092.55 627.377C1092.97 623.304 1093.22 619.217 1093.3 615.13C1093.42 611.948 1093.25 608.761 1092.79 605.608C1092.36 603.303 1091.8 601.024 1091.12 598.782L1085.72 579.738C1083.48 571.88 1086.59 563.261 1087.25 555.116C1087.41 553.194 1087.44 550.957 1085.96 549.724C1085.43 549.279 1084.7 548.978 1084.53 548.29C1084.45 547.963 1084.44 547.624 1084.5 547.293C1084.56 546.963 1084.68 546.648 1084.87 546.368C1087.74 540.632 1092.04 535.57 1095.96 530.393C1102.56 521.312 1108.68 511.897 1114.3 502.185C1112.54 481.863 1103.99 462.727 1090.03 447.864C1087.16 444.752 1083.88 441.769 1079.87 440.364C1077.25 439.563 1074.53 439.124 1071.79 439.059C1060.55 438.299 1048.86 437.625 1039.07 431.975C1038.37 431.488 1037.57 431.151 1036.74 430.985C1034.57 430.742 1033 432.878 1031.59 434.571C1027.98 438.873 1022.66 441.339 1017.99 444.508C1009.28 450.431 1002.47 458.576 996.183 466.879Z" fill="#5B5583"/>
<path d="M1115.28 508.051C1117.51 515.135 1117.3 522.707 1118.03 530.092C1118.46 534.549 1119.24 538.965 1120.36 543.299C1120.88 545.682 1121.8 547.957 1123.09 550.025C1124.38 551.918 1126.23 553.452 1127.04 555.589C1127.49 557.037 1127.69 558.549 1127.63 560.063L1127.8 569.958C1128.17 575.202 1127.37 580.461 1125.47 585.36L1119.29 604.16C1115.95 614.341 1112.53 624.681 1106.51 633.543C1105.66 635.043 1104.38 636.249 1102.83 636.999C1101.61 637.32 1100.37 637.513 1099.11 637.573C1096.93 637.963 1094.95 639.103 1093.51 640.796C1092.08 642.489 1091.28 644.63 1091.25 646.851C1089.81 644.754 1088.02 642.924 1085.96 641.445L1073.39 631.406C1069.09 627.907 1064.61 624.351 1059.39 622.329C1066.41 620.137 1072.64 615.953 1077.32 610.287C1082.01 604.62 1084.95 597.714 1085.79 590.407C1085.78 588.232 1086.27 586.084 1087.22 584.126C1088.27 582.434 1090.2 581.143 1090.34 579.15C1090.52 576.641 1087.68 574.748 1087.68 572.238C1087.68 570.575 1088.91 569.198 1089.46 567.635C1089.96 565.703 1089.96 563.673 1089.46 561.741L1087.72 552.104C1087.62 551.139 1087.33 550.203 1086.86 549.351C1086.21 548.534 1085.49 547.776 1084.71 547.085C1081.73 543.744 1083.05 538.481 1084.71 534.365C1088.53 525.23 1093.45 516.595 1099.36 508.653C1101.46 505.986 1103.41 503.199 1105.19 500.307C1106.71 497.668 1107.05 494.011 1108.66 491.703C1110.72 497.123 1113.52 502.472 1115.28 508.051Z" fill="#5B5583"/>
<path d="M1058.95 622.917C1058.31 623.392 1057.75 623.974 1057.31 624.638C1055.63 626.759 1053.38 628.364 1050.82 629.27C1052.26 630.302 1053.56 631.32 1054.91 632.367C1064.87 640.07 1074 648.804 1082.13 658.424C1083.04 655.197 1088.44 655.427 1089.76 652.343C1090.07 651.461 1090.17 650.518 1090.04 649.59C1089.77 644.759 1089.08 639.961 1087.98 635.25C1087.55 632.824 1086.57 630.529 1085.11 628.538C1083.11 626.115 1079.98 624.953 1077 623.949C1072.49 622.372 1063.53 620.149 1058.95 622.917Z" fill="#323444"/>
<path d="M1041.04 634.188C1036.74 637.372 1032.97 641.359 1028.14 643.538C1024.73 645.087 1020.84 645.761 1017.86 648.07C1019.48 651.641 1023.7 653.491 1027.61 653.347C1031.52 652.962 1035.28 651.585 1038.51 649.346C1041.08 647.769 1044.09 645.933 1046.88 647.037C1047.31 649.217 1045.45 651.268 1045.45 653.476C1045.45 655.685 1047.28 657.291 1049.09 658.452C1057.69 664.002 1068.75 663.543 1078.99 662.898C1079.58 662.92 1080.16 662.748 1080.64 662.41C1080.87 662.151 1081.03 661.85 1081.14 661.525C1081.25 661.2 1081.29 660.858 1081.26 660.517C1081.39 658.252 1081.45 656 1081.46 653.734C1081.75 651.907 1081.51 650.036 1080.78 648.339C1080.04 646.642 1078.84 645.191 1077.3 644.155C1071.74 639.372 1065.75 635.123 1059.39 631.464C1053.09 627.807 1046.7 629.972 1041.04 634.188Z" fill="#FBB3B2"/>
<path d="M1004.51 365.837C998.146 366.597 993.517 371.573 994.162 376.98C994.807 382.386 1000.48 386.114 1006.84 385.34C1013.21 384.566 1017.83 379.604 1017.19 374.212C1016.55 368.82 1010.87 365.077 1004.51 365.837ZM1006.67 383.849C1001.28 384.494 996.483 381.325 995.925 376.765C995.366 372.204 999.306 367.988 1004.68 367.343C1010.05 366.698 1014.87 369.867 1015.43 374.427C1015.99 378.987 1012.05 383.203 1006.67 383.849Z" fill="#3C354C"/>
<path d="M973.498 369.566C967.136 370.326 962.507 375.302 963.152 380.694C963.797 386.086 969.472 389.829 975.834 389.069C982.197 388.309 986.825 383.332 986.18 377.926C985.535 372.52 979.861 368.806 973.498 369.566ZM975.662 387.563C970.274 388.208 965.474 385.039 964.929 380.493C964.385 375.947 968.297 371.717 973.685 371.057C979.073 370.397 983.873 373.581 984.418 378.141C984.962 382.701 981.036 386.918 975.662 387.563Z" fill="#3C354C"/>
<path d="M950.471 372.333L964.299 375.287L962.937 378.93L949.897 375.101L950.471 372.333Z" fill="#3C354C"/>
<path d="M1027.55 363.069L1014.8 369.221L1016.99 372.434L1028.75 365.622L1027.55 363.069Z" fill="#3C354C"/>
<path d="M984.905 374.37L994.606 373.208L994.105 375.617L985.779 376.177L984.905 374.37Z" fill="#3C354C"/>
<path d="M966.09 371.114C967.003 369.15 967.491 367.014 967.523 364.848C967.557 363.551 967.779 362.266 968.182 361.033C968.886 359.467 969.958 358.095 971.306 357.032C975.777 353.246 982.182 351.296 988.502 351.024C995.392 350.706 1002.25 352.189 1008.39 355.326C1010.27 356.206 1011.95 357.454 1013.34 358.997C1015.34 361.449 1015.77 364.618 1017.79 367.042C1019.17 368.512 1020.91 369.602 1022.83 370.205C1024.75 370.808 1026.8 370.904 1028.77 370.483C1029.47 367.988 1028.55 365.35 1028.91 362.797C1029.48 360.61 1030.24 358.479 1031.19 356.43C1033.41 349.876 1030.17 342.276 1023.49 338.361C1021.16 336.927 1018.39 335.995 1016.65 334.059C1014.9 332.123 1014.48 330.115 1013.28 328.179C1010.08 323.06 1001.81 320.665 995.523 323.031C993.546 323.777 991.797 324.91 989.791 325.713C986.065 327.247 981.824 327.52 977.726 328.036C973.686 328.41 969.735 329.446 966.032 331.105C962.493 332.854 959.527 335.665 958.71 339.021C958.323 340.569 958.409 342.176 958.022 343.71C956.045 351.497 943.277 355.283 942.56 363.227C942.302 366.095 943.864 368.849 945.813 371.186C947.16 372.778 950.384 377.037 952.663 377.654C954.941 378.27 956.675 376.105 958.853 375.359C962.292 374.284 964.37 374.054 966.09 371.114Z" fill="#CBCEDA"/>
<path opacity="0.1" d="M1224.36 1031.46C1238.22 1031.46 1249.46 1029.56 1249.46 1027.22C1249.46 1024.87 1238.22 1022.97 1224.36 1022.97C1210.49 1022.97 1199.25 1024.87 1199.25 1027.22C1199.25 1029.56 1210.49 1031.46 1224.36 1031.46Z" fill="#6C63FF"/>
<path opacity="0.1" d="M109.079 1041.83C120.111 1041.83 129.055 1040.31 129.055 1038.44C129.055 1036.57 120.111 1035.06 109.079 1035.06C98.0465 1035.06 89.103 1036.57 89.103 1038.44C89.103 1040.31 98.0465 1041.83 109.079 1041.83Z" fill="#6C63FF"/>
</g>
<defs>
<clipPath id="clip0">
<rect width="1359" height="1087" fill="white"/>
</clipPath>
</defs>
</svg>
